<?xml version="1.0" encoding="UTF-8" standalone="no"?>
<svg width="44px" height="44px" viewBox="0 0 44 44" version="1.1" xmlns="http://www.w3.org/2000/svg" xmlns:xlink="http://www.w3.org/1999/xlink" xmlns:sketch="http://www.bohemiancoding.com/sketch/ns">
    <!-- Generator: Sketch 3.0 (7573) - http://www.bohemiancoding.com/sketch -->
    <title>cog</title>
    <description>Created with Sketch.</description>
    <defs>
        <linearGradient x1="16.7520661%" y1="22.6699124%" x2="115.368595%" y2="89.3245044%" id="linearGradient-1">
            <stop stop-color="#FFFFFF" offset="0%"></stop>
            <stop stop-color="#FFFFFF" stop-opacity="0" offset="100%"></stop>
        </linearGradient>
        <linearGradient x1="83.7900826%" y1="76.7336184%" x2="-14.8231405%" y2="10.0917269%" id="linearGradient-2">
            <stop stop-color="#FFFFFF" offset="0%"></stop>
            <stop stop-color="#FFFFFF" stop-opacity="0" offset="100%"></stop>
        </linearGradient>
    </defs>
    <g id="Page-1" stroke="none" stroke-width="1" fill="none" fill-rule="evenodd" sketch:type="MSPage">
        <g id="Artboard-1" sketch:type="MSArtboardGroup" transform="translate(-301.000000, -40.000000)">
            <g id="cog" sketch:type="MSLayerGroup" transform="translate(302.000000, 41.000000)">
                <g id="Group" sketch:type="MSShapeGroup">
                    <path d="M4.3,9.9 L4.5,10.4 L9.5,5.2 C9.5,5.2 10.1,4.3 10.6,4 L4.3,9.9 L4.3,9.9 Z" id="Shape" fill="#FFFFFF"></path>
                    <path d="M31.1,5.5 L31.4,5.4 L37.6,11.3 L37.3,11.6 C37.3,11.6 37.1,11.3 36.2,10.6 L31.1,5.5 L31.1,5.5 Z" id="Shape" fill="#FFFFFF"></path>
                    <path d="M36,32.5 L35.9,32.1 L31,36.9 C31,36.9 30.5,37.7 30.1,38.1 L36,32.5 L36,32.5 Z" id="Shape" fill="#FFFFFF"></path>
                    <path d="M3.2,31.1 L8.8,37.1 L9.3,37 L3.9,31.7 C3.8,31.7 3.5,31.5 3.2,31.1 L3.2,31.1 Z" id="Shape" fill="#FFFFFF"></path>
                    <g id="Shape">
                        <path d="M33,17.8 L33,17.8 C35.1,24.3 40.9,24 40.9,24 L40.9,24 L42.1,24 L42.1,18 L40.9,18 C38.3,18 37.9,15.8 37.9,15.8 L37.9,15.8 C37.5,14.6 37.1,13.5 36.5,12.4 C35.5,10.2 37.3,8.9 37.3,8.9 L38.2,8 L36.3,6.1 L30,12.4 C31.3,13.8 32.4,15.7 33,17.8 L33,17.8 Z" fill="url(#linearGradient-1)"></path>
                        <path d="M33,4.7 L33,4.7 C31.2,6.6 29.3,5.3 29.3,5.3 L29.3,5.3 C28.2,4.7 27.1,4.2 25.9,3.9 L25.9,3.9 C23.6,3.1 23.8,0.9 23.8,0.9 L23.8,-0.3 L17.8,-0.3 L17.8,0.9 C17.8,0.9 18,3 15.7,3.9 L15.7,3.9 C14.5,4.3 13.4,4.7 12.3,5.3 L12.3,5.3 C12.3,5.3 10.4,6.6 8.6,4.7 L8.6,4.7 L7.7,3.8 L3.6,8 L4.5,8.9 C4.7,9 6.2,10.3 5.3,12.4 C4.7,13.5 4.2,14.6 3.9,15.8 L3.9,15.8 C3.9,15.8 3.5,18 0.9,18 L0.9,18 L-0.5,18 L-0.5,24 L0.7,24 C0.7,24 6.5,24.3 8.6,17.8 L8.6,17.8 C10.1,12.5 15,8.6 20.8,8.6 C24.3,8.6 27.5,10.1 29.8,12.4 L36.1,6.1 L33.8,3.8 L33,4.7 L33,4.7 Z" fill="#FFFFFF"></path>
                        <path d="M8.6,24.1 L8.6,24.1 C6.6,17.6 0.8,18 0.8,18 L0.8,18 L-0.5,18 L-0.5,24 L0.7,24 C3.3,24 3.7,26.2 3.7,26.2 L3.7,26.2 C4.1,27.4 4.5,28.5 5.1,29.6 C6.1,31.8 4.3,33.1 4.3,33.1 L3.4,34 L5.3,35.9 L11.6,29.6 C10.3,28.1 9.2,26.2 8.6,24.1 L8.6,24.1 Z" fill="url(#linearGradient-2)"></path>
                        <path d="M8.7,37.2 L8.7,37.2 C10.5,35.3 12.4,36.6 12.4,36.6 L12.4,36.6 C13.5,37.2 14.6,37.7 15.8,38 L15.8,38 C18.1,38.8 17.9,41 17.9,41 L17.9,42.2 L23.9,42.2 L23.9,41 C23.9,41 23.7,38.9 26,38 L26,38 C27.2,37.6 28.3,37.2 29.4,36.6 L29.4,36.6 C29.4,36.6 31.3,35.3 33.1,37.2 L33.1,37.2 L34,38.1 L38.2,33.9 L37.2,33 C37,32.9 35.5,31.6 36.4,29.5 C37,28.4 37.5,27.3 37.8,26.1 L37.8,26.1 C37.8,26.1 38.2,23.9 40.8,23.9 L40.8,23.9 L42,23.9 L42,17.9 L40.8,17.9 C40.8,17.9 35,17.6 32.9,24.1 L32.9,24.1 C31.4,29.4 26.5,33.3 20.7,33.3 C17.2,33.3 14,31.8 11.7,29.5 L5.4,35.8 L7.7,38.1 L8.7,37.2 L8.7,37.2 Z" fill="#FFFFFF"></path>
                    </g>
                    <path d="M5.5,35.8 L11.7,29.5 L11.9,29.6 L5.6,35.9 L5.5,35.8 Z" id="Shape" fill="#FFFFFF"></path>
                    <path d="M29.8,12.3 L36.1,6 L36.2,6.1 L29.9,12.4 L29.8,12.3 Z" id="Shape" fill="#FFFFFF"></path>
                </g>
            </g>
        </g>
    </g>
</svg>