<?xml version="1.0" encoding="UTF-8" standalone="no"?>
<svg width="143px" height="51px" viewBox="0 0 143 51" version="1.1" xmlns="http://www.w3.org/2000/svg" xmlns:xlink="http://www.w3.org/1999/xlink" xmlns:sketch="http://www.bohemiancoding.com/sketch/ns">
    <!-- Generator: Sketch 3.0 (7573) - http://www.bohemiancoding.com/sketch -->
    <title>logo</title>
    <description>Created with Sketch.</description>
    <defs>
        <linearGradient x1="0.205172414%" y1="50.175%" x2="100.215517%" y2="50.175%" id="linearGradient-1">
            <stop stop-color="#FFFFFF" stop-opacity="0" offset="0%"></stop>
            <stop stop-color="#FFFFFF" offset="100%"></stop>
        </linearGradient>
        <linearGradient x1="0.180952381%" y1="50.4591837%" x2="99.8630952%" y2="50.4591837%" id="linearGradient-2">
            <stop stop-color="#FFFFFF" offset="0%"></stop>
            <stop stop-color="#FFFFFF" stop-opacity="0" offset="100%"></stop>
        </linearGradient>
        <linearGradient x1="-0.291666667%" y1="50.4591837%" x2="99.3964286%" y2="50.4591837%" id="linearGradient-3">
            <stop stop-color="#FFFFFF" offset="0%"></stop>
            <stop stop-color="#FFFFFF" stop-opacity="0" offset="100%"></stop>
        </linearGradient>
    </defs>
    <g id="Page-1" stroke="none" stroke-width="1" fill="none" fill-rule="evenodd" sketch:type="MSPage">
        <g id="Artboard-1" sketch:type="MSArtboardGroup" transform="translate(-43.000000, -36.000000)">
            <g id="logo" sketch:type="MSLayerGroup" transform="translate(43.000000, 37.000000)">
                <g id="Group" sketch:type="MSShapeGroup">
                    <path d="M54.8,15.4 L55,15.9 L60,10.7 C60,10.7 60.6,9.8 61.1,9.5 L54.8,15.4 L54.8,15.4 Z" id="Shape" fill="#FFFFFF"></path>
                    <path d="M81.6,11 L81.9,10.9 L88.1,16.8 L87.8,17.1 C87.8,17.1 87.6,16.8 86.7,16.1 L81.6,11 L81.6,11 Z" id="Shape" fill="#FFFFFF"></path>
                    <path d="M86.5,38 L86.4,37.6 L81.5,42.4 C81.5,42.4 81,43.2 80.6,43.6 L86.5,38 L86.5,38 Z" id="Shape" fill="#FFFFFF"></path>
                    <path d="M53.7,36.6 L59.3,42.6 L59.8,42.5 L54.4,37.2 C54.3,37.2 54,37 53.7,36.6 L53.7,36.6 Z" id="Shape" fill="#FFFFFF"></path>
                    <g>
                        <g>
                            <g transform="translate(0.000000, 2.000000)" id="Shape">
                                <g transform="translate(36.000000, 0.000000)">
                                    <path d="M86,31.2 C79.1,31.2 74.3,27.4 74.3,20.3 L74.3,10.7 C74.3,3.7 79.1,-0.3 86,-0.3 C92.9,-0.3 97.8,3.7 97.8,10.7 L97.8,20.3 C97.7,27.4 92.8,31.2 86,31.2 L86,31.2 Z M90.1,9.6 C90.1,6.8 88.6,5.3 85.9,5.3 C83.3,5.3 81.7,6.8 81.7,9.6 L81.7,21.5 C81.7,24.3 83.2,25.8 85.9,25.8 C88.5,25.8 90.1,24.3 90.1,21.5 L90.1,9.6 L90.1,9.6 Z" fill="#FFFFFF"></path>
                                    <path d="M26.1,31.2 L26.1,9.6 C26.1,6.8 27.6,5.3 30.3,5.3 C32.9,5.3 34.5,6.8 34.5,9.6 L34.5,31.3 L42,31.3 L42,10.7 C42,3.7 37.1,-0.3 30.2,-0.3 C23.3,-0.3 18.5,3.7 18.5,10.7 L18.5,31.2 L26.1,31.2 L26.1,31.2 Z" fill="#FFFFFF"></path>
                                    <path d="M5.3,19.3 L5.3,14.1 C4.9,14.2 4.4,14.2 3.8,14.2 L-0.5,14.2 L-0.5,19.3 L4.3,19.3 C4.6,19.3 5,19.3 5.3,19.3 L5.3,19.3 Z" fill="url(#linearGradient-1)"></path>
                                </g>
                                <path d="M12.1,-0.2 C5.2,-0.2 0.4,3.8 0.4,10.8 L0.4,20.4 C0.4,25.9 3.3,29.5 7.9,30.8 L7.9,21.5 L7.9,9.6 C7.9,6.8 9.4,5.3 12.1,5.3 C14.7,5.3 16.3,6.8 16.3,9.6 L16.3,37.3 C16.3,40.6 14.3,42.3 11.5,42 C9.2,41.7 6.8,39.9 6.8,39.9 L3.5,44.6 C3.5,44.6 7.8,48.1 12.6,48 C19.9,47.9 23.9,43.2 23.9,37.3 L23.9,10.7 C23.9,3.7 19,-0.2 12.1,-0.2 L12.1,-0.2 Z" fill="#FFFFFF"></path>
                                <path d="M12.1,31.2 L16.3,31.2 L16.3,25.7 L12.1,25.7 C9.5,25.7 7.9,24.2 7.9,21.4 L7.9,30.7 C9.2,31.1 10.6,31.2 12.1,31.2 L12.1,31.2 L12.1,31.2 Z" fill="url(#linearGradient-2)"></path>
                                <path d="M94.1,-0.2 C87.2,-0.2 82.4,3.8 82.4,10.8 L82.4,20.4 C82.4,25.9 85.3,29.5 89.9,30.8 L89.9,21.5 L89.9,9.6 C89.9,6.8 91.4,5.3 94.1,5.3 C96.7,5.3 98.3,6.8 98.3,9.6 L98.3,37.3 C98.3,40.6 96.3,42.3 93.5,42 C91.2,41.7 88.8,39.9 88.8,39.9 L85.5,44.6 C85.5,44.6 89.8,48.1 94.6,48 C101.9,47.9 105.9,43.2 105.9,37.3 L105.9,10.7 C105.8,3.7 100.9,-0.2 94.1,-0.2 L94.1,-0.2 Z" fill="#FFFFFF"></path>
                                <path d="M94.1,31.2 L98.3,31.2 L98.3,25.7 L94.1,25.7 C91.5,25.7 89.9,24.2 89.9,21.4 L89.9,30.7 C91.1,31.1 92.5,31.2 94.1,31.2 C94,31.2 94,31.2 94.1,31.2 L94.1,31.2 Z" fill="url(#linearGradient-3)"></path>
                                <path d="M40.4,25.2 C37.6,25.6 35.5,23.9 35.5,20.5 L35.5,9.4 C35.5,6.8 37.2,5.3 39.6,5.3 C42.1,5.3 43.9,6.7 43.9,9.6 L43.9,10.2 C43.9,11.5 44.1,13.6 41.3,14.1 L41.3,19.3 C46.8,18.9 50.9,15.2 50.9,9.6 C50.9,3.7 46.1,-0.3 39.6,-0.3 C32.6,-0.3 28,4.2 28,10.5 L28,20.5 C28,26.4 32,31 39.3,31.2 C44.2,31.3 48.4,27.8 48.4,27.8 L45.1,23.1 C45.1,23.1 42.6,24.9 40.4,25.2 L40.4,25.2 Z" fill="#FFFFFF"></path>
                            </g>
                            <path d="M139.5,-0.5 C137.7,-0.5 136.2,1 136.2,2.8 C136.2,4.6 137.7,6.1 139.5,6.1 C141.3,6.1 142.8,4.6 142.8,2.8 C142.8,0.9 141.3,-0.5 139.5,-0.5 L139.5,-0.5 Z M139.5,5.5 C138,5.5 136.7,4.3 136.7,2.7 C136.7,1.2 137.9,-0.1 139.5,-0.1 C141,-0.1 142.3,1.1 142.3,2.7 C142.2,4.3 141,5.5 139.5,5.5 L139.5,5.5 Z M140.4,3.2 C140.3,3.1 140.2,3 140,2.9 C140.3,2.9 140.5,2.8 140.7,2.6 C140.9,2.4 140.9,2.2 140.9,2 C140.9,1.8 140.9,1.6 140.7,1.5 C140.6,1.3 140.5,1.2 140.3,1.2 C140.1,1.1 139.9,1.1 139.5,1.1 L138,1.1 L138,4.5 L138.7,4.5 L138.7,3 L138.8,3 L139.2,3 C139.3,3 139.3,3.1 139.4,3.1 C139.5,3.2 139.6,3.3 139.8,3.6 L140.3,4.4 L141.1,4.4 L140.7,3.7 C140.6,3.5 140.5,3.3 140.4,3.2 L140.4,3.2 Z M139.3,2.4 L138.8,2.4 L138.8,1.5 L139.3,1.5 L139.8,1.5 C139.9,1.5 140,1.6 140.1,1.6 C140.2,1.7 140.2,1.8 140.2,1.9 C140.2,2 140.2,2.1 140.1,2.2 C140.1,2.3 140,2.3 139.9,2.3 C139.9,2.4 139.6,2.4 139.3,2.4 L139.3,2.4 Z" id="_x38__2_" fill="#FFFFFF"></path>
                        </g>
                        <path d="M8.1,32.7 L7.8,32.6 L7.9,23.1 C7.9,23.1 7.9,23.9 8,24.4 L8.1,32.7 L8.1,32.7 Z" id="Shape" fill="#FFFFFF"></path>
                        <path d="M41.4,16 L41.2,16.1 L41.2,21.3 L41.4,21.3 L41.4,16 Z" id="Shape" fill="#FFFFFF"></path>
                        <path d="M89.9,23.4 L89.7,24.1 L89.7,32.5 L90,32.6 L90,24.3 C90,24.5 89.9,23.7 89.9,23.4 L89.9,23.4 Z" id="Shape" fill="#FFFFFF"></path>
                    </g>
                </g>
            </g>
        </g>
    </g>
</svg>