<?xml version="1.0" encoding="utf-8"?>
<!-- Generator: Adobe Illustrator 18.0.0, SVG Export Plug-In . SVG Version: 6.00 Build 0)  -->
<!DOCTYPE svg PUBLIC "-//W3C//DTD SVG 1.1//EN" "http://www.w3.org/Graphics/SVG/1.1/DTD/svg11.dtd">
<svg version="1.1" id="Layer_1" xmlns="http://www.w3.org/2000/svg" xmlns:xlink="http://www.w3.org/1999/xlink" x="0px" y="0px"
	 viewBox="0 0 291.3 120.7" enable-background="new 0 0 291.3 120.7" xml:space="preserve">
<g>
	<g>
		<g>
			<g>
				<path fill="#17AC7E" d="M234.1,74.8c-12,0-20.4-6.7-20.4-19V39c0-12.2,8.4-19.1,20.4-19.1c12,0,20.5,6.9,20.5,19.1v16.8
					C254.6,68.1,246.1,74.8,234.1,74.8z M241.4,37c0-4.8-2.7-7.5-7.3-7.5c-4.6,0-7.3,2.7-7.3,7.5v20.7c0,4.9,2.7,7.5,7.3,7.5
					c4.6,0,7.3-2.6,7.3-7.5V37z"/>
				<path fill="#17AC7E" d="M129.8,74.7V37c0-4.8,2.7-7.5,7.3-7.5c4.6,0,7.3,2.7,7.3,7.5v37.7h13.2V39c0-12.2-8.5-19.1-20.5-19.1
					c-12,0-20.4,6.9-20.4,19.1v35.7H129.8z"/>
				<linearGradient id="SVGID_1_" gradientUnits="userSpaceOnUse" x1="83.52" y1="49.4355" x2="93.623" y2="49.4355">
					<stop  offset="0" style="stop-color:#1C815D"/>
					<stop  offset="1" style="stop-color:#17AC7E"/>
				</linearGradient>
				<path fill="url(#SVGID_1_)" d="M93.6,54v-9.1c-0.7,0.1-1.6,0.2-2.5,0.2c0,0-7.5,0-7.6,0v9c0.1,0,8.3,0,8.3,0
					C92.4,54,93,54,93.6,54z"/>
			</g>
			<path fill="#17AC7E" d="M42.7,19.9c-12,0-20.4,6.9-20.4,19.1v16.8c0,9.6,5.1,15.8,13.1,18V57.7V37c0-4.8,2.7-7.5,7.3-7.5
				c4.6,0,7.3,2.7,7.3,7.5v48.2c0,5.8-3.4,8.7-8.4,8.1c-3.9-0.5-8.2-3.6-8.2-3.6l-5.8,8.2c0,0,7.5,6.1,15.9,6
				c12.7-0.3,19.7-8.4,19.7-18.6V39C63.2,26.8,54.7,19.9,42.7,19.9z"/>
			<linearGradient id="SVGID_2_" gradientUnits="userSpaceOnUse" x1="35.4521" y1="66.2187" x2="50.0376" y2="66.2187">
				<stop  offset="0" style="stop-color:#17AC7E"/>
				<stop  offset="1" style="stop-color:#1C815D"/>
			</linearGradient>
			<path fill="url(#SVGID_2_)" d="M42.7,74.8H50v-9.6h-7.3c-4.6,0-7.3-2.6-7.3-7.5v16.1c2.2,0.6,4.6,0.9,7.2,0.9
				C42.7,74.8,42.7,74.8,42.7,74.8z"/>
			<path fill="#17AC7E" d="M185.5,19.9c-12,0-20.4,6.9-20.4,19.1v16.8c0,9.6,5.1,15.8,13.1,18V57.7V37c0-4.8,2.7-7.5,7.3-7.5
				c4.6,0,7.3,2.7,7.3,7.5v48.2c0,5.8-3.4,8.7-8.4,8.1c-3.9-0.5-8.2-3.6-8.2-3.6l-5.8,8.2c0,0,7.5,6.1,15.9,6
				c12.7-0.3,19.7-8.4,19.7-18.6V39C206,26.8,197.5,19.9,185.5,19.9z"/>
			<linearGradient id="SVGID_3_" gradientUnits="userSpaceOnUse" x1="178.2129" y1="66.2187" x2="192.7978" y2="66.2187">
				<stop  offset="0" style="stop-color:#17AC7E"/>
				<stop  offset="1" style="stop-color:#1C815D"/>
			</linearGradient>
			<path fill="url(#SVGID_3_)" d="M185.5,74.8h7.3v-9.6h-7.3c-4.6,0-7.3-2.6-7.3-7.5v16.1c2.2,0.6,4.6,0.9,7.2,0.9
				C185.4,74.8,185.5,74.8,185.5,74.8z"/>
			<path fill="#17AC7E" d="M92,64.2c-4.9,0.6-8.5-2.3-8.5-8.1V36.7c0-4.5,3-7.2,7.2-7.2c4.4,0,7.4,2.4,7.4,7.5v1.1
				c0,2.3,0.3,5.9-4.5,6.8V54c9.6-0.7,16.7-7.1,16.7-16.8c0-10.2-8.3-17.2-19.7-17.2c-12.2,0-20.2,7.9-20.2,18.8v8.6v8.2v0.6
				c0,10.2,6.9,18.3,19.7,18.6c8.5,0.2,15.9-6,15.9-6l-5.8-8.2C100.2,60.6,95.9,63.7,92,64.2z"/>
		</g>
	</g>
	<path id="_x38__3_" fill="#17AC7E" d="M264.7,15.9c-3.2,0-5.8,2.6-5.8,5.8c0,3.2,2.6,5.8,5.8,5.8s5.8-2.6,5.8-5.8
		C270.4,18.5,267.8,15.9,264.7,15.9z M264.7,26.5c-2.7,0-4.8-2.2-4.8-4.8c0-2.7,2.2-4.8,4.8-4.8c2.7,0,4.8,2.2,4.8,4.8
		C269.5,24.3,267.3,26.5,264.7,26.5z M266.2,22.4c-0.2-0.2-0.4-0.4-0.7-0.5c0.5-0.1,0.9-0.3,1.2-0.6c0.3-0.3,0.4-0.7,0.4-1.1
		c0-0.4-0.1-0.7-0.3-0.9c-0.2-0.3-0.4-0.5-0.7-0.6c-0.3-0.1-0.8-0.2-1.4-0.2h-2.6v6h1.2V22h0.2c0.3,0,0.5,0,0.6,0.1
		c0.1,0,0.2,0.1,0.4,0.3c0.1,0.1,0.3,0.4,0.6,0.9l0.9,1.3h1.5l-0.7-1.2C266.6,22.9,266.4,22.6,266.2,22.4z M264.4,21.1h-0.9v-1.5
		l0.9,0c0.5,0,0.8,0,0.9,0c0.2,0,0.3,0.1,0.5,0.2c0.1,0.1,0.2,0.3,0.2,0.5c0,0.2,0,0.3-0.1,0.5c-0.1,0.1-0.2,0.2-0.3,0.3
		C265.3,21,265,21.1,264.4,21.1z"/>
</g>
</svg>
