<?xml version="1.0" encoding="UTF-8" standalone="no"?>
<svg width="46px" height="47px" viewBox="0 0 46 47" version="1.1" xmlns="http://www.w3.org/2000/svg" xmlns:xlink="http://www.w3.org/1999/xlink" xmlns:sketch="http://www.bohemiancoding.com/sketch/ns">
    <!-- Generator: Sketch 3.0 (7573) - http://www.bohemiancoding.com/sketch -->
    <title>pinwheel</title>
    <description>Created with Sketch.</description>
    <defs>
        <linearGradient x1="28.9477339%" y1="27.1271856%" x2="74.3202347%" y2="59.1949681%" id="linearGradient-1">
            <stop stop-color="#FFFFFF" offset="0%"></stop>
            <stop stop-color="#FFFFFF" stop-opacity="0" offset="100%"></stop>
        </linearGradient>
        <linearGradient x1="68.4771448%" y1="71.5776914%" x2="18.4129603%" y2="35.9259237%" id="linearGradient-2">
            <stop stop-color="#FFFFFF" offset="0%"></stop>
            <stop stop-color="#FFFFFF" stop-opacity="0" offset="100%"></stop>
        </linearGradient>
        <linearGradient x1="70.580303%" y1="34.893617%" x2="35.0924242%" y2="74.7670213%" id="linearGradient-3">
            <stop stop-color="#FFFFFF" offset="0%"></stop>
            <stop stop-color="#FFFFFF" stop-opacity="0" offset="100%"></stop>
        </linearGradient>
        <linearGradient x1="25.5643939%" y1="67.5382979%" x2="63.4363636%" y2="32.5319149%" id="linearGradient-4">
            <stop stop-color="#FFFFFF" offset="0%"></stop>
            <stop stop-color="#FFFFFF" stop-opacity="0" offset="100%"></stop>
        </linearGradient>
    </defs>
    <g id="Page-1" stroke="none" stroke-width="1" fill="none" fill-rule="evenodd" sketch:type="MSPage">
        <g id="Artboard-1" sketch:type="MSArtboardGroup" transform="translate(-221.000000, -39.000000)">
            <g id="pinwheel" sketch:type="MSLayerGroup" transform="translate(221.000000, 39.000000)">
                <g id="Group" sketch:type="MSShapeGroup">
                    <g id="Shape">
                        <g transform="translate(7.000000, 0.000000)">
                            <path d="M16.6,3.5 C12.4,-0.7 7.3,-0.8 3.1,3.4 C0.4,6.1 -0.5,9.2 0.3,12.2 L6.1,6.4 C8.1,4.4 10.4,4.6 12.3,6.5 L19.1,13.3 C21,15.2 21.2,17.5 19.2,19.5 C18.2,20.5 17.2,20.9 16.1,20.8 L16.1,25.5 C18.2,25.4 20.3,24.4 22.2,22.5 C26.4,18.3 26.3,13.2 22.1,9 L16.6,3.5 L16.6,3.5 Z" fill="#FFFFFF"></path>
                            <path d="M3.2,16.9 L6,19.7 L9.7,16 L6.3,12.6 C4.4,10.7 4.2,8.4 6.1,6.4 L0.3,12.2 C0.8,13.8 1.7,15.4 3.2,16.9 L3.2,16.9 Z" fill="url(#linearGradient-1)"></path>
                        </g>
                        <g transform="translate(14.000000, 21.000000)">
                            <path d="M13,18.9 L6.2,12.1 C4.3,10.2 4.1,7.9 6.1,5.9 C7.1,4.9 8.1,4.5 9.2,4.6 L9.2,-0.1 C7.1,-3.56659147e-15 5,1 3.1,2.9 C-1.1,7.1 -1,12.2 3.2,16.4 L8.7,21.9 C12.9,26.1 18,26.2 22.2,22 C24.9,19.3 25.8,16.2 25,13.2 L19.2,19 C17.2,21 14.9,20.8 13,18.9 L13,18.9 Z" fill="#FFFFFF"></path>
                            <path d="M19.3,5.8 L15.6,9.5 L19,12.9 C20.9,14.8 21.1,17.1 19.2,19 L25,13.2 C24.5,11.6 23.6,10 22.1,8.5 L19.3,5.8 L19.3,5.8 Z" fill="url(#linearGradient-2)"></path>
                        </g>
                        <g transform="translate(21.000000, 7.000000)">
                            <path d="M13.2,0.4 L19,6.2 C21,8.2 20.8,10.5 18.9,12.4 L12,19.2 C10.1,21.1 7.8,21.3 5.8,19.3 C4.8,18.3 4.4,17.3 4.5,16.2 L-0.2,16.2 C-0.1,18.3 0.9,20.4 2.8,22.3 C7,26.5 12.1,26.4 16.3,22.2 L21.8,16.7 C26,12.5 26.1,7.4 21.9,3.2 C19.3,0.5 16.2,-0.4 13.2,0.4 L13.2,0.4 Z" fill="#FFFFFF"></path>
                            <path d="M8.5,3.3 L5.7,6.1 L9.4,9.8 L12.8,6.4 C14.7,4.5 17,4.3 18.9,6.2 L13.1,0.4 C11.6,0.9 10,1.8 8.5,3.3 L8.5,3.3 Z" fill="url(#linearGradient-3)"></path>
                        </g>
                        <g transform="translate(0.000000, 14.000000)">
                            <path d="M8.9,3.3 L3.4,8.8 C-0.8,13 -0.8,18.1 3.3,22.3 C6,25 9.1,25.9 12.1,25 L6.3,19.2 C4.3,17.2 4.5,14.9 6.4,13 L13.2,6.2 C15.1,4.3 17.4,4.1 19.4,6.1 C20.4,7.1 20.8,8.1 20.7,9.2 L25.4,9.2 C25.3,7.1 24.3,5 22.4,3.1 C18.3,-1 13.1,-0.9 8.9,3.3 L8.9,3.3 Z" fill="#FFFFFF"></path>
                            <path d="M16.8,22.2 L19.6,19.4 L15.9,15.7 L12.5,19.1 C10.6,21 8.3,21.2 6.4,19.3 L12.2,25.1 C13.7,24.6 15.3,23.6 16.8,22.2 L16.8,22.2 Z" fill="url(#linearGradient-4)"></path>
                        </g>
                    </g>
                    <path d="M7.3,11.9 L7.5,12.4 L12.5,7.2 C12.5,7.2 13.1,6.3 13.6,6 L7.3,11.9 L7.3,11.9 Z" id="Shape" fill="#FFFFFF"></path>
                    <path d="M34.1,7.5 L34.4,7.4 L40.6,13.3 L40.3,13.6 C40.3,13.6 40.1,13.3 39.2,12.6 L34.1,7.5 L34.1,7.5 Z" id="Shape" fill="#FFFFFF"></path>
                    <path d="M39,34.5 L38.9,34.1 L34,38.9 C34,38.9 33.5,39.7 33.1,40.1 L39,34.5 L39,34.5 Z" id="Shape" fill="#FFFFFF"></path>
                    <path d="M6.2,33.1 L11.8,39.1 L12.3,39 L6.9,33.7 C6.8,33.7 6.5,33.5 6.2,33.1 L6.2,33.1 Z" id="Shape" fill="#FFFFFF"></path>
                </g>
            </g>
        </g>
    </g>
</svg>