<?xml version="1.0" encoding="UTF-8" standalone="no"?>
<svg width="44px" height="40px" viewBox="0 0 44 40" version="1.1" xmlns="http://www.w3.org/2000/svg" xmlns:xlink="http://www.w3.org/1999/xlink" xmlns:sketch="http://www.bohemiancoding.com/sketch/ns">
    <!-- Generator: Sketch 3.0 (7573) - http://www.bohemiancoding.com/sketch -->
    <title>code</title>
    <description>Created with Sketch.</description>
    <defs>
        <linearGradient x1="49.3403614%" y1="52.9004695%" x2="49.3403614%" y2="-11.7924883%" id="linearGradient-1">
            <stop stop-color="#FFFFFF" offset="0%"></stop>
            <stop stop-color="#FFFFFF" stop-opacity="0" offset="100%"></stop>
        </linearGradient>
        <linearGradient x1="50.2036364%" y1="50.342723%" x2="50.2036364%" y2="107.811737%" id="linearGradient-2">
            <stop stop-color="#FFFFFF" offset="0%"></stop>
            <stop stop-color="#FFFFFF" stop-opacity="0" offset="100%"></stop>
        </linearGradient>
    </defs>
    <g id="Page-1" stroke="none" stroke-width="1" fill="none" fill-rule="evenodd" sketch:type="MSPage">
        <g id="Artboard-1" sketch:type="MSArtboardGroup" transform="translate(-379.000000, -42.000000)">
            <g id="code" sketch:type="MSLayerGroup" transform="translate(379.000000, 43.000000)">
                <g id="Group" sketch:type="MSShapeGroup">
                    <path d="M5.3,7.9 L5.5,8.4 L10.5,3.2 C10.5,3.2 11.1,2.3 11.6,2 L5.3,7.9 L5.3,7.9 Z" id="Shape" fill="#FFFFFF"></path>
                    <path d="M32.1,3.5 L32.4,3.4 L38.6,9.3 L38.3,9.6 C38.3,9.6 38.1,9.3 37.2,8.6 L32.1,3.5 L32.1,3.5 Z" id="Shape" fill="#FFFFFF"></path>
                    <path d="M37,30.5 L36.9,30.1 L32,34.9 C32,34.9 31.5,35.7 31.1,36.1 L37,30.5 L37,30.5 Z" id="Shape" fill="#FFFFFF"></path>
                    <path d="M4.2,29.1 L9.8,35.1 L10.3,35 L4.9,29.7 C4.8,29.7 4.5,29.5 4.2,29.1 L4.2,29.1 Z" id="Shape" fill="#FFFFFF"></path>
                    <g id="Shape">
                        <g>
                            <g>
                                <path d="M10.9,-0.2 C5.9,-0.2 3,3.2 3,7.3 L3,14.2 C3,16.1 1.9,17.2 0.1,17.2 L0.1,21.1 C4.9,21.1 8.4,18.3 8.4,13.4 L8.4,6.7 C8.4,4.7 9.5,3.6 11.7,3.6 C12.7,3.6 14.3,4.3 15.2,4.8 L16.6,2 C15.2,1 13.1,-0.2 10.9,-0.2 L10.9,-0.2 Z" fill="#FFFFFF"></path>
                                <path d="M10.9,38.5 C5.9,38.5 3,35.1 3,31 L3,24.1 C3,22.2 1.9,21.1 0.1,21.1 L0.1,17.2 C4.9,17.2 8.4,20 8.4,24.9 L8.4,31.6 C8.4,33.6 9.5,34.7 11.7,34.7 C12.7,34.7 14.3,34 15.2,33.5 L16.7,36.4 C15.2,37.4 13.1,38.5 10.9,38.5 L10.9,38.5 Z" fill="url(#linearGradient-1)"></path>
                            </g>
                            <g transform="translate(27.000000, 0.000000)">
                                <path d="M5.7,38.5 C10.7,38.5 13.6,35.1 13.6,31 L13.6,24.1 C13.6,22.2 14.7,21.1 16.5,21.1 L16.5,17.2 C11.7,17.2 8.3,20 8.3,24.9 L8.3,31.6 C8.3,33.6 7.2,34.7 5,34.7 C4,34.7 2.4,34 1.5,33.5 L0,36.3 C1.4,37.4 3.5,38.5 5.7,38.5 L5.7,38.5 Z" fill="#FFFFFF"></path>
                                <path d="M5.7,-0.2 C10.7,-0.2 13.6,3.2 13.6,7.3 L13.6,14.2 C13.6,16.1 14.7,17.2 16.5,17.2 L16.5,21.1 C11.7,21.1 8.3,18.3 8.3,13.4 L8.3,6.7 C8.3,4.7 7.2,3.6 5,3.6 C4,3.6 2.4,4.3 1.5,4.8 L0,2 C1.4,1 3.5,-0.2 5.7,-0.2 L5.7,-0.2 Z" fill="url(#linearGradient-2)"></path>
                            </g>
                        </g>
                        <path d="M20.3,28.8 L14.6,28.8 L22,9.6 L27.7,9.6 L20.3,28.8 L20.3,28.8 Z" fill="#FFFFFF"></path>
                    </g>
                </g>
            </g>
        </g>
    </g>
</svg>