<?xml version="1.0" encoding="utf-8"?>
<!-- Generator: Adobe Illustrator 16.2.1, SVG Export Plug-In . SVG Version: 6.00 Build 0)  -->
<!DOCTYPE svg PUBLIC "-//W3C//DTD SVG 1.1//EN" "http://www.w3.org/Graphics/SVG/1.1/DTD/svg11.dtd">
<svg version="1.1" id="Layer_1" xmlns="http://www.w3.org/2000/svg" xmlns:xlink="http://www.w3.org/1999/xlink" x="0px" y="0px"
	 width="291.304px" height="120.652px" viewBox="0 0 291.304 120.652" enable-background="new 0 0 291.304 120.652"
	 xml:space="preserve">
<g>
	<g>
		<g>
			<g>
				<path fill="#FFFFFF" d="M237.81,79.947c-12.018,0-20.426-6.707-20.426-19.027V44.108c0-12.215,8.408-19.126,20.426-19.126
					c12.016,0,20.525,6.911,20.525,19.126V60.92C258.335,73.24,249.826,79.947,237.81,79.947z M245.117,42.104
					c0-4.805-2.703-7.509-7.307-7.509c-4.609,0-7.313,2.705-7.313,7.509v20.718c0,4.908,2.704,7.515,7.313,7.515
					c4.604,0,7.307-2.606,7.307-7.515V42.104z"/>
				<path fill="#FFFFFF" d="M133.241,79.923V42.104c0-4.805,2.703-7.509,7.311-7.509c4.608,0,7.308,2.705,7.308,7.509v37.819h13.219
					V44.108c0-12.215-8.51-19.126-20.526-19.126c-12.02,0-20.428,6.911-20.428,19.126v35.815H133.241z"/>
				<linearGradient id="SVGID_1_" gradientUnits="userSpaceOnUse" x1="86.8804" y1="54.5591" x2="97.0088" y2="54.5591">
					<stop  offset="0" style="stop-color:#FFFFFF;stop-opacity:0"/>
					<stop  offset="1" style="stop-color:#FFFFFF"/>
				</linearGradient>
				<path fill="url(#SVGID_1_)" d="M97.009,59.087v-9.126c-0.726,0.138-1.565,0.217-2.542,0.217c-0.013,0-7.521,0-7.586,0v8.979
					c0.116,0,8.285,0,8.298,0C95.796,59.157,96.407,59.132,97.009,59.087z"/>
			</g>
			<path fill="#FFFFFF" d="M46.005,24.982c-12.015,0-20.428,6.911-20.428,19.126V60.92c0,9.658,5.122,15.845,13.117,18.08V62.821
				V42.104c0-4.805,2.706-7.509,7.311-7.509c4.607,0,7.31,2.705,7.31,7.509v48.309c0,5.787-3.431,8.76-8.379,8.129
				c-3.934-0.502-8.229-3.629-8.229-3.629l-5.849,8.186c0,0,7.476,6.162,15.971,5.992c12.773-0.252,19.707-8.398,19.707-18.629
				V44.108C66.534,31.893,58.023,24.982,46.005,24.982z"/>
			<linearGradient id="SVGID_2_" gradientUnits="userSpaceOnUse" x1="38.6938" y1="71.3848" x2="53.3145" y2="71.3848">
				<stop  offset="0" style="stop-color:#FFFFFF"/>
				<stop  offset="1" style="stop-color:#FFFFFF;stop-opacity:0"/>
			</linearGradient>
			<path fill="url(#SVGID_2_)" d="M46.005,79.94h7.31v-9.604h-7.31c-4.605,0-7.311-2.606-7.311-7.515V79
				c2.206,0.617,4.609,0.947,7.206,0.947C45.938,79.947,45.971,79.943,46.005,79.94z"/>
			<path fill="#FFFFFF" d="M189.117,24.982c-12.016,0-20.43,6.911-20.43,19.126V60.92c0,9.658,5.124,15.845,13.117,18.08V62.821
				V42.104c0-4.805,2.707-7.509,7.312-7.509c4.607,0,7.31,2.705,7.31,7.509v48.309c0,5.787-3.432,8.76-8.379,8.129
				c-3.935-0.502-8.23-3.629-8.23-3.629l-5.848,8.186c0,0,7.474,6.162,15.97,5.992c12.773-0.252,19.706-8.398,19.706-18.629V44.108
				C209.645,31.893,201.135,24.982,189.117,24.982z"/>
			<linearGradient id="SVGID_3_" gradientUnits="userSpaceOnUse" x1="181.8042" y1="71.3848" x2="196.4263" y2="71.3848">
				<stop  offset="0" style="stop-color:#FFFFFF"/>
				<stop  offset="1" style="stop-color:#FFFFFF;stop-opacity:0"/>
			</linearGradient>
			<path fill="url(#SVGID_3_)" d="M189.117,79.94h7.31v-9.604h-7.31c-4.605,0-7.312-2.606-7.312-7.515V79
				c2.206,0.617,4.609,0.947,7.207,0.947C189.048,79.947,189.083,79.943,189.117,79.94z"/>
			<path fill="#FFFFFF" d="M95.359,69.371c-4.948,0.631-8.478-2.343-8.478-8.13V41.788c0-4.489,3.022-7.194,7.206-7.194
				c4.408,0,7.436,2.404,7.436,7.509v1.061c0,2.29,0.271,5.889-4.514,6.796v9.126c9.609-0.725,16.723-7.158,16.723-16.879
				c0-10.262-8.368-17.226-19.745-17.226c-12.22,0-20.227,7.911-20.227,18.826v17.482c0,10.231,6.933,18.377,19.707,18.63
				c8.495,0.168,15.97-5.993,15.97-5.993l-5.849-8.187C103.588,65.741,99.292,68.869,95.359,69.371z"/>
		</g>
	</g>
	<path id="_x38__2_" fill="#FFFFFF" d="M268.412,20.942c-3.184,0-5.764,2.581-5.764,5.765c0,3.183,2.58,5.764,5.764,5.764
		s5.764-2.581,5.764-5.764C274.175,23.523,271.595,20.942,268.412,20.942z M268.412,31.537c-2.668-0.006-4.826-2.163-4.83-4.83
		c0.004-2.667,2.162-4.825,4.83-4.83c2.668,0.005,4.824,2.164,4.83,4.83C273.236,29.374,271.08,31.531,268.412,31.537z
		 M270.003,27.409c-0.172-0.184-0.389-0.352-0.652-0.505c0.529-0.076,0.926-0.262,1.191-0.557c0.266-0.294,0.398-0.667,0.398-1.119
		c0-0.355-0.086-0.672-0.264-0.948c-0.174-0.277-0.408-0.47-0.699-0.578c-0.291-0.108-0.76-0.163-1.402-0.163h-2.559v6.022h1.215
		v-2.515h0.246c0.281,0,0.484,0.022,0.613,0.067s0.25,0.129,0.365,0.251s0.328,0.417,0.641,0.885l0.879,1.312h1.455l-0.736-1.175
		C270.406,27.919,270.173,27.592,270.003,27.409z M268.132,26.088h-0.9V24.56l0.949,0c0.492,0,0.789,0.006,0.889,0.02
		c0.195,0.033,0.348,0.112,0.457,0.236c0.107,0.125,0.16,0.287,0.16,0.491c0,0.18-0.039,0.331-0.121,0.452
		c-0.082,0.12-0.197,0.204-0.342,0.255C269.08,26.062,268.714,26.088,268.132,26.088z"/>
</g>
</svg>
