<?xml version="1.0" encoding="UTF-8" standalone="no"?>
<svg width="395px" height="392px" viewBox="0 0 395 392" version="1.1" xmlns="http://www.w3.org/2000/svg" xmlns:xlink="http://www.w3.org/1999/xlink" xmlns:sketch="http://www.bohemiancoding.com/sketch/ns">
    <!-- Generator: Sketch 3.0.4 (8053) - http://www.bohemiancoding.com/sketch -->
    <title>Artboard 1</title>
    <desc>Created with Sketch.</desc>
    <defs>
        <linearGradient x1="-0.00592417062%" y1="50.0010874%" x2="99.9980253%" y2="50.0010874%" id="linearGradient-1">
            <stop stop-color="#FFFFFF" stop-opacity="0" offset="0%"></stop>
            <stop stop-color="#FFFFFF" offset="100%"></stop>
        </linearGradient>
        <linearGradient x1="-0.00136789549%" y1="50.0046713%" x2="99.9965803%" y2="50.0046713%" id="linearGradient-2">
            <stop stop-color="#FFFFFF" offset="0%"></stop>
            <stop stop-color="#FFFFFF" stop-opacity="0" offset="100%"></stop>
        </linearGradient>
        <linearGradient x1="-0.00547120777%" y1="50.0046713%" x2="99.9952127%" y2="50.0046713%" id="linearGradient-3">
            <stop stop-color="#FFFFFF" offset="0%"></stop>
            <stop stop-color="#FFFFFF" stop-opacity="0" offset="100%"></stop>
        </linearGradient>
    </defs>
    <g id="Page-1" stroke="none" stroke-width="1" fill="none" fill-rule="evenodd" sketch:type="MSPage">
        <g id="Artboard-1" sketch:type="MSArtboardGroup">
            <circle id="Oval-1" fill="#1CAD7E" sketch:type="MSShapeGroup" cx="197.5" cy="196.5" r="187.5"></circle>
            <g id="gengo_logo_white" sketch:type="MSLayerGroup" transform="translate(81.000000, 162.000000)">
                <g id="Group" sketch:type="MSShapeGroup">
                    <g transform="translate(0.000000, 4.000000)" id="Shape">
                        <g transform="translate(61.000000, 0.000000)">
                            <path d="M150.81,54.947 C138.792,54.947 130.384,48.24 130.384,35.92 L130.384,19.108 C130.384,6.893 138.792,-0.018 150.81,-0.018 C162.826,-0.018 171.335,6.893 171.335,19.108 L171.335,35.92 C171.335,48.24 162.826,54.947 150.81,54.947 L150.81,54.947 Z M158.117,17.104 C158.117,12.299 155.414,9.595 150.81,9.595 C146.201,9.595 143.497,12.3 143.497,17.104 L143.497,37.822 C143.497,42.73 146.201,45.337 150.81,45.337 C155.414,45.337 158.117,42.731 158.117,37.822 L158.117,17.104 L158.117,17.104 Z" fill="#FFFFFF"></path>
                            <path d="M46.241,54.923 L46.241,17.104 C46.241,12.299 48.944,9.595 53.552,9.595 C58.16,9.595 60.86,12.3 60.86,17.104 L60.86,54.923 L74.079,54.923 L74.079,19.108 C74.079,6.893 65.569,-0.018 53.553,-0.018 C41.533,-0.018 33.125,6.893 33.125,19.108 L33.125,54.923 L46.241,54.923 L46.241,54.923 Z" fill="#FFFFFF"></path>
                            <path d="M10.009,34.087 L10.009,24.961 C9.283,25.099 8.444,25.178 7.467,25.178 L-0.119,25.178 L-0.119,34.157 L8.179,34.157 C8.796,34.157 9.407,34.132 10.009,34.087 L10.009,34.087 Z" fill="url(#linearGradient-1)"></path>
                        </g>
                        <path d="M20.005,-0.018 C7.99,-0.018 -0.423,6.893 -0.423,19.108 L-0.423,35.92 C-0.423,45.578 4.699,51.765 12.694,54 L12.694,37.821 L12.694,17.104 C12.694,12.299 15.4,9.595 20.005,9.595 C24.612,9.595 27.315,12.3 27.315,17.104 L27.315,65.413 C27.315,71.2 23.884,74.173 18.936,73.542 C15.002,73.04 10.707,69.913 10.707,69.913 L4.858,78.099 C4.858,78.099 12.334,84.261 20.829,84.091 C33.602,83.839 40.536,75.693 40.536,65.462 L40.536,19.108 C40.534,6.893 32.023,-0.018 20.005,-0.018 L20.005,-0.018 Z" fill="#FFFFFF"></path>
                        <path d="M20.005,54.94 L27.315,54.94 L27.315,45.336 L20.005,45.336 C15.4,45.336 12.694,42.73 12.694,37.821 L12.694,54 C14.9,54.617 17.303,54.947 19.9,54.947 C19.938,54.947 19.971,54.943 20.005,54.94 L20.005,54.94 Z" fill="url(#linearGradient-2)"></path>
                        <path d="M163.117,-0.018 C151.101,-0.018 142.687,6.893 142.687,19.108 L142.687,35.92 C142.687,45.578 147.811,51.765 155.804,54 L155.804,37.821 L155.804,17.104 C155.804,12.299 158.511,9.595 163.116,9.595 C167.723,9.595 170.426,12.3 170.426,17.104 L170.426,65.413 C170.426,71.2 166.994,74.173 162.047,73.542 C158.112,73.04 153.817,69.913 153.817,69.913 L147.969,78.099 C147.969,78.099 155.443,84.261 163.939,84.091 C176.712,83.839 183.645,75.693 183.645,65.462 L183.645,19.108 C183.645,6.893 175.135,-0.018 163.117,-0.018 L163.117,-0.018 Z" fill="#FFFFFF"></path>
                        <path d="M163.117,54.94 L170.427,54.94 L170.427,45.336 L163.117,45.336 C158.512,45.336 155.805,42.73 155.805,37.821 L155.805,54 C158.011,54.617 160.414,54.947 163.012,54.947 C163.048,54.947 163.083,54.943 163.117,54.94 L163.117,54.94 Z" fill="url(#linearGradient-3)"></path>
                        <path d="M69.359,44.371 C64.411,45.002 60.881,42.028 60.881,36.241 L60.881,16.788 C60.881,12.299 63.903,9.594 68.087,9.594 C72.495,9.594 75.523,11.998 75.523,17.103 L75.523,18.164 C75.523,20.454 75.794,24.053 71.009,24.96 L71.009,34.086 C80.618,33.361 87.732,26.928 87.732,17.207 C87.732,6.945 79.364,-0.019 67.987,-0.019 C55.767,-0.019 47.76,7.892 47.76,18.807 L47.76,36.289 C47.76,46.52 54.693,54.666 67.467,54.919 C75.962,55.087 83.437,48.926 83.437,48.926 L77.588,40.739 C77.588,40.741 73.292,43.869 69.359,44.371 L69.359,44.371 Z" fill="#FFFFFF"></path>
                    </g>
                    <path d="M242.412,-0.058 C239.228,-0.058 236.648,2.523 236.648,5.707 C236.648,8.89 239.228,11.471 242.412,11.471 C245.596,11.471 248.176,8.89 248.176,5.707 C248.175,2.523 245.595,-0.058 242.412,-0.058 L242.412,-0.058 Z M242.412,10.537 C239.744,10.531 237.586,8.374 237.582,5.707 C237.586,3.04 239.744,0.882 242.412,0.877 C245.08,0.882 247.236,3.041 247.242,5.707 C247.236,8.374 245.08,10.531 242.412,10.537 L242.412,10.537 Z M244.003,6.409 C243.831,6.225 243.614,6.057 243.351,5.904 C243.88,5.828 244.277,5.642 244.542,5.347 C244.808,5.053 244.94,4.68 244.94,4.228 C244.94,3.873 244.854,3.556 244.676,3.28 C244.502,3.003 244.268,2.81 243.977,2.702 C243.686,2.594 243.217,2.539 242.575,2.539 L240.016,2.539 L240.016,8.561 L241.231,8.561 L241.231,6.046 L241.477,6.046 C241.758,6.046 241.961,6.068 242.09,6.113 C242.219,6.158 242.34,6.242 242.455,6.364 C242.57,6.486 242.783,6.781 243.096,7.249 L243.975,8.561 L245.43,8.561 L244.694,7.386 C244.406,6.919 244.173,6.592 244.003,6.409 L244.003,6.409 Z M242.132,5.088 L241.232,5.088 L241.232,3.56 L242.181,3.56 C242.673,3.56 242.97,3.566 243.07,3.58 C243.265,3.613 243.418,3.692 243.527,3.816 C243.634,3.941 243.687,4.103 243.687,4.307 C243.687,4.487 243.648,4.638 243.566,4.759 C243.484,4.879 243.369,4.963 243.224,5.014 C243.08,5.062 242.714,5.088 242.132,5.088 L242.132,5.088 Z" id="_x38__2_" fill="#FFFFFF"></path>
                </g>
            </g>
            <g id="gengo_logo_white-2" sketch:type="MSLayerGroup" transform="translate(81.000000, 162.000000)">
                <g id="Group" sketch:type="MSShapeGroup">
                    <g transform="translate(0.000000, 4.000000)" id="Shape">
                        <g transform="translate(61.000000, 0.000000)">
                            <path d="M150.81,54.947 C138.792,54.947 130.384,48.24 130.384,35.92 L130.384,19.108 C130.384,6.893 138.792,-0.018 150.81,-0.018 C162.826,-0.018 171.335,6.893 171.335,19.108 L171.335,35.92 C171.335,48.24 162.826,54.947 150.81,54.947 L150.81,54.947 Z M158.117,17.104 C158.117,12.299 155.414,9.595 150.81,9.595 C146.201,9.595 143.497,12.3 143.497,17.104 L143.497,37.822 C143.497,42.73 146.201,45.337 150.81,45.337 C155.414,45.337 158.117,42.731 158.117,37.822 L158.117,17.104 L158.117,17.104 Z" fill="#FFFFFF"></path>
                            <path d="M46.241,54.923 L46.241,17.104 C46.241,12.299 48.944,9.595 53.552,9.595 C58.16,9.595 60.86,12.3 60.86,17.104 L60.86,54.923 L74.079,54.923 L74.079,19.108 C74.079,6.893 65.569,-0.018 53.553,-0.018 C41.533,-0.018 33.125,6.893 33.125,19.108 L33.125,54.923 L46.241,54.923 L46.241,54.923 Z" fill="#FFFFFF"></path>
                            <path d="M10.009,34.087 L10.009,24.961 C9.283,25.099 8.444,25.178 7.467,25.178 L-0.119,25.178 L-0.119,34.157 L8.179,34.157 C8.796,34.157 9.407,34.132 10.009,34.087 L10.009,34.087 Z" fill="url(#linearGradient-1)"></path>
                        </g>
                        <path d="M20.005,-0.018 C7.99,-0.018 -0.423,6.893 -0.423,19.108 L-0.423,35.92 C-0.423,45.578 4.699,51.765 12.694,54 L12.694,37.821 L12.694,17.104 C12.694,12.299 15.4,9.595 20.005,9.595 C24.612,9.595 27.315,12.3 27.315,17.104 L27.315,65.413 C27.315,71.2 23.884,74.173 18.936,73.542 C15.002,73.04 10.707,69.913 10.707,69.913 L4.858,78.099 C4.858,78.099 12.334,84.261 20.829,84.091 C33.602,83.839 40.536,75.693 40.536,65.462 L40.536,19.108 C40.534,6.893 32.023,-0.018 20.005,-0.018 L20.005,-0.018 Z" fill="#FFFFFF"></path>
                        <path d="M20.005,54.94 L27.315,54.94 L27.315,45.336 L20.005,45.336 C15.4,45.336 12.694,42.73 12.694,37.821 L12.694,54 C14.9,54.617 17.303,54.947 19.9,54.947 C19.938,54.947 19.971,54.943 20.005,54.94 L20.005,54.94 Z" fill="url(#linearGradient-2)"></path>
                        <path d="M163.117,-0.018 C151.101,-0.018 142.687,6.893 142.687,19.108 L142.687,35.92 C142.687,45.578 147.811,51.765 155.804,54 L155.804,37.821 L155.804,17.104 C155.804,12.299 158.511,9.595 163.116,9.595 C167.723,9.595 170.426,12.3 170.426,17.104 L170.426,65.413 C170.426,71.2 166.994,74.173 162.047,73.542 C158.112,73.04 153.817,69.913 153.817,69.913 L147.969,78.099 C147.969,78.099 155.443,84.261 163.939,84.091 C176.712,83.839 183.645,75.693 183.645,65.462 L183.645,19.108 C183.645,6.893 175.135,-0.018 163.117,-0.018 L163.117,-0.018 Z" fill="#FFFFFF"></path>
                        <path d="M163.117,54.94 L170.427,54.94 L170.427,45.336 L163.117,45.336 C158.512,45.336 155.805,42.73 155.805,37.821 L155.805,54 C158.011,54.617 160.414,54.947 163.012,54.947 C163.048,54.947 163.083,54.943 163.117,54.94 L163.117,54.94 Z" fill="url(#linearGradient-3)"></path>
                        <path d="M69.359,44.371 C64.411,45.002 60.881,42.028 60.881,36.241 L60.881,16.788 C60.881,12.299 63.903,9.594 68.087,9.594 C72.495,9.594 75.523,11.998 75.523,17.103 L75.523,18.164 C75.523,20.454 75.794,24.053 71.009,24.96 L71.009,34.086 C80.618,33.361 87.732,26.928 87.732,17.207 C87.732,6.945 79.364,-0.019 67.987,-0.019 C55.767,-0.019 47.76,7.892 47.76,18.807 L47.76,36.289 C47.76,46.52 54.693,54.666 67.467,54.919 C75.962,55.087 83.437,48.926 83.437,48.926 L77.588,40.739 C77.588,40.741 73.292,43.869 69.359,44.371 L69.359,44.371 Z" fill="#FFFFFF"></path>
                    </g>
                    <path d="M242.412,-0.058 C239.228,-0.058 236.648,2.523 236.648,5.707 C236.648,8.89 239.228,11.471 242.412,11.471 C245.596,11.471 248.176,8.89 248.176,5.707 C248.175,2.523 245.595,-0.058 242.412,-0.058 L242.412,-0.058 Z M242.412,10.537 C239.744,10.531 237.586,8.374 237.582,5.707 C237.586,3.04 239.744,0.882 242.412,0.877 C245.08,0.882 247.236,3.041 247.242,5.707 C247.236,8.374 245.08,10.531 242.412,10.537 L242.412,10.537 Z M244.003,6.409 C243.831,6.225 243.614,6.057 243.351,5.904 C243.88,5.828 244.277,5.642 244.542,5.347 C244.808,5.053 244.94,4.68 244.94,4.228 C244.94,3.873 244.854,3.556 244.676,3.28 C244.502,3.003 244.268,2.81 243.977,2.702 C243.686,2.594 243.217,2.539 242.575,2.539 L240.016,2.539 L240.016,8.561 L241.231,8.561 L241.231,6.046 L241.477,6.046 C241.758,6.046 241.961,6.068 242.09,6.113 C242.219,6.158 242.34,6.242 242.455,6.364 C242.57,6.486 242.783,6.781 243.096,7.249 L243.975,8.561 L245.43,8.561 L244.694,7.386 C244.406,6.919 244.173,6.592 244.003,6.409 L244.003,6.409 Z M242.132,5.088 L241.232,5.088 L241.232,3.56 L242.181,3.56 C242.673,3.56 242.97,3.566 243.07,3.58 C243.265,3.613 243.418,3.692 243.527,3.816 C243.634,3.941 243.687,4.103 243.687,4.307 C243.687,4.487 243.648,4.638 243.566,4.759 C243.484,4.879 243.369,4.963 243.224,5.014 C243.08,5.062 242.714,5.088 242.132,5.088 L242.132,5.088 Z" id="_x38__2_" fill="#FFFFFF"></path>
                </g>
            </g>
        </g>
    </g>
</svg>